<svg width="29" height="26" viewBox="0 0 29 26" fill="none" xmlns="http://www.w3.org/2000/svg">
<path id="Vector" fill-rule="evenodd" clip-rule="evenodd" d="M0 24.632C0 25.387 0.660643 26 1.47673 26H7.38581C8.2019 26 8.86254 25.387 8.86254 24.632V21.793C8.86254 21.038 9.52427 20.425 10.3404 20.425H11.1888C12.0038 20.425 12.6656 19.812 12.6656 19.056V15.636C12.6656 14.88 12.0038 14.267 11.1888 14.267H7.49592C6.67983 14.267 6.01811 14.88 6.01811 15.635V16.421C6.01811 17.177 5.35639 17.79 4.54138 17.79H1.47673C0.661722 17.79 0 18.402 0 19.158V24.632ZM8.86254 4.89C8.86254 5.646 9.52427 6.258 10.3404 6.258H11.1888C12.0038 6.258 12.6656 6.871 12.6656 7.627V10.364C12.6656 11.119 12.0038 11.732 11.1888 11.732H8.23429C8.04027 11.7321 7.84812 11.6968 7.66883 11.6282C7.48954 11.5595 7.32662 11.4587 7.18938 11.3317C7.05214 11.2046 6.94327 11.0538 6.86899 10.8877C6.79471 10.7217 6.75647 10.5437 6.75647 10.364V9.578C6.75647 8.822 6.09583 8.21 5.27974 8.21H1.47673C1.08508 8.21 0.709465 8.06587 0.432524 7.80932C0.155584 7.55277 0 7.20482 0 6.842V1.37C0 0.613 0.660643 0 1.47673 0H7.38581C8.2019 0 8.86254 0.613 8.86254 1.369V4.89ZM21.309 9.578C21.309 8.822 21.9707 8.21 22.7868 8.21H26.5898C27.4048 8.21 28.0665 7.597 28.0665 6.841V1.37C28.0665 1.007 27.911 0.658838 27.6341 0.40197C27.3573 0.145103 26.9816 0.000529927 26.5898 0L20.6807 0C20.2889 0.000264867 19.9131 0.144583 19.6361 0.401263C19.359 0.657943 19.2032 1.006 19.2029 1.369V4.89C19.2029 5.646 18.5423 6.258 17.7262 6.258H16.8777C16.0627 6.258 15.401 6.871 15.401 7.627V10.364C15.401 11.119 16.0627 11.732 16.8777 11.732H19.8322C20.6483 11.732 21.31 11.119 21.31 10.364L21.309 9.578ZM28.0665 24.631C28.0665 25.386 27.4048 25.999 26.5887 25.999H20.6807C20.4867 25.9991 20.2945 25.9638 20.1153 25.8952C19.936 25.8265 19.773 25.7257 19.6358 25.5987C19.4986 25.4716 19.3897 25.3208 19.3154 25.1547C19.2411 24.9887 19.2029 24.8107 19.2029 24.631V21.108C19.2029 20.353 18.5412 19.74 17.7262 19.74H16.8777C16.6837 19.74 16.4916 19.7046 16.3123 19.6358C16.1331 19.567 15.9702 19.4661 15.8331 19.339C15.696 19.2118 15.5872 19.0609 15.5131 18.8948C15.4389 18.7287 15.4008 18.5507 15.401 18.371V15.635C15.401 14.879 16.0627 14.266 16.8777 14.266H19.8322C20.2241 14.2663 20.5998 14.4106 20.8769 14.6673C21.154 14.9239 21.3098 15.272 21.31 15.635V16.42C21.31 17.176 21.9707 17.789 22.7868 17.789H26.5887C27.4048 17.789 28.0665 18.401 28.0665 19.157V24.631Z" fill="#CAECF1"/>
</svg>
