<svg width="24" height="24" viewBox="0 0 24 24" fill="none" xmlns="http://www.w3.org/2000/svg">
<g id="Cross/Cross Square">
<path id="Vector" d="M8.99998 15.0001L12 12.0001M12 12.0001L15 9.0001M12 12.0001L8.99998 9.0001M12 12.0001L15 15.0001M11.9999 21C9.20429 21 7.80647 21 6.70384 20.5433C5.23367 19.9343 4.06563 18.7663 3.45666 17.2961C2.99994 16.1935 2.99994 14.7956 2.99994 12C2.99994 9.20435 2.99994 7.80653 3.45666 6.7039C4.06563 5.23373 5.23367 4.06569 6.70384 3.45672C7.80647 3 9.20429 3 11.9999 3C14.7956 3 16.1934 3 17.296 3.45672C18.7662 4.06569 19.9343 5.23373 20.5432 6.7039C20.9999 7.80653 20.9999 9.20435 20.9999 12C20.9999 14.7956 20.9999 16.1935 20.5432 17.2961C19.9343 18.7663 18.7662 19.9343 17.296 20.5433C16.1934 21 14.7956 21 11.9999 21Z" stroke="#CAECF1" stroke-width="2" stroke-linecap="round" stroke-linejoin="round"/>
</g>
</svg>
